<svg xmlns="http://www.w3.org/2000/svg" width="15.013" height="17.142" viewBox="0 0 15.013 17.142" fill="none">
  <path d="M 7.507 6.7 C 7.136 6.7 6.773 6.81 6.465 7.016 C 6.156 7.222 5.916 7.516 5.774 7.858 C 5.632 8.201 5.595 8.578 5.668 8.942 C 5.741 9.306 5.92 9.64 6.182 9.902 C 6.445 10.164 6.779 10.343 7.143 10.414 C 7.507 10.486 7.884 10.449 8.227 10.306 C 8.569 10.164 8.862 9.923 9.068 9.614 C 9.273 9.305 9.382 8.942 9.382 8.571 C 9.381 8.074 9.183 7.599 8.831 7.248 C 8.48 6.897 8.003 6.7 7.507 6.7 Z M 7.507 9.379 C 7.348 9.379 7.194 9.332 7.062 9.244 C 6.931 9.156 6.828 9.031 6.768 8.885 C 6.707 8.739 6.691 8.578 6.722 8.423 C 6.753 8.268 6.829 8.125 6.941 8.013 C 7.053 7.901 7.195 7.825 7.351 7.794 C 7.506 7.764 7.667 7.779 7.813 7.84 C 7.959 7.9 8.084 8.003 8.172 8.135 C 8.26 8.266 8.307 8.421 8.307 8.579 C 8.307 8.791 8.222 8.995 8.072 9.145 C 7.922 9.295 7.719 9.379 7.507 9.379 Z M 13.826 8.579 C 14.308 7.985 14.671 7.302 14.894 6.57 C 14.999 6.238 15.035 5.888 15.001 5.542 C 14.966 5.196 14.862 4.86 14.694 4.555 C 14.084 3.534 12.674 3.116 10.894 3.268 C 10.112 1.266 8.899 0 7.507 0 C 6.115 0 4.902 1.266 4.124 3.26 C 2.343 3.109 0.933 3.526 0.324 4.547 C 0.155 4.852 0.051 5.187 0.016 5.534 C -0.018 5.88 0.018 6.23 0.124 6.562 C 0.345 7.294 0.707 7.976 1.188 8.571 C 0.705 9.165 0.343 9.848 0.12 10.58 C 0.015 10.912 -0.022 11.262 0.013 11.608 C 0.047 11.954 0.151 12.29 0.32 12.595 C 0.68 13.066 1.156 13.436 1.702 13.668 C 2.248 13.9 2.845 13.986 3.435 13.918 C 3.648 13.918 3.887 13.88 4.113 13.861 C 4.891 15.867 6.113 17.142 7.504 17.142 C 8.895 17.142 10.117 15.867 10.895 13.861 C 11.121 13.88 11.36 13.918 11.573 13.918 C 12.162 13.987 12.759 13.902 13.305 13.671 C 13.852 13.44 14.329 13.071 14.69 12.6 C 14.858 12.295 14.963 11.96 14.997 11.613 C 15.031 11.267 14.995 10.917 14.89 10.585 C 14.668 9.851 14.307 9.167 13.826 8.571 L 13.826 8.579 Z M 1.243 12.046 C 1.148 11.864 1.091 11.665 1.076 11.46 C 1.062 11.256 1.088 11.051 1.156 10.857 C 1.319 10.334 1.573 9.843 1.907 9.408 C 2.357 9.873 2.84 10.305 3.353 10.7 C 3.439 11.423 3.58 12.139 3.775 12.841 C 2.507 12.9 1.585 12.618 1.243 12.046 Z M 3.236 9.2 C 3.006 8.992 2.793 8.783 2.596 8.573 C 2.796 8.362 3.009 8.153 3.236 7.946 C 3.229 8.154 3.22 8.361 3.22 8.573 C 3.22 8.785 3.228 8.99 3.236 9.2 Z M 3.353 6.449 C 2.84 6.842 2.357 7.272 1.907 7.735 C 1.574 7.299 1.321 6.809 1.16 6.285 C 1.092 6.092 1.065 5.888 1.079 5.684 C 1.094 5.48 1.15 5.281 1.244 5.1 C 1.513 4.797 1.854 4.566 2.234 4.426 C 2.615 4.287 3.024 4.243 3.426 4.3 C 3.537 4.3 3.657 4.309 3.775 4.315 C 3.58 5.016 3.439 5.731 3.353 6.454 L 3.353 6.449 Z M 10.443 5.595 C 10.163 5.417 9.878 5.241 9.579 5.074 C 9.363 4.954 9.149 4.843 8.933 4.734 C 9.335 4.611 9.743 4.511 10.157 4.434 C 10.253 4.753 10.38 5.272 10.443 5.595 Z M 7.507 1.071 C 8.313 1.071 9.165 1.943 9.79 3.414 C 9.01 3.576 8.246 3.805 7.507 4.1 C 6.767 3.806 6.003 3.578 5.224 3.418 C 5.849 1.942 6.701 1.071 7.507 1.071 Z M 4.857 4.438 C 5.27 4.515 5.678 4.615 6.08 4.738 C 5.865 4.846 5.65 4.958 5.435 5.078 C 5.135 5.244 4.851 5.42 4.571 5.599 C 4.634 5.271 4.761 4.753 4.857 4.438 Z M 4.571 11.549 C 4.851 11.727 5.136 11.903 5.435 12.07 C 5.66 12.196 5.883 12.287 6.108 12.4 C 5.697 12.525 5.279 12.627 4.857 12.706 C 4.742 12.326 4.647 11.94 4.571 11.55 L 4.571 11.549 Z M 7.507 16.071 C 6.698 16.071 5.842 15.193 5.217 13.711 C 5.999 13.553 6.765 13.325 7.507 13.031 C 8.248 13.325 9.015 13.553 9.797 13.711 C 9.172 15.193 8.316 16.071 7.507 16.071 Z M 10.157 12.7 C 9.735 12.624 9.317 12.523 8.907 12.4 C 9.132 12.287 9.355 12.2 9.579 12.07 C 9.879 11.904 10.164 11.728 10.444 11.55 C 10.364 11.958 10.266 12.342 10.157 12.7 Z M 10.65 10.109 C 10.14 10.481 9.608 10.822 9.057 11.13 C 8.554 11.41 8.037 11.663 7.507 11.887 C 6.976 11.663 6.458 11.41 5.955 11.13 C 5.404 10.822 4.872 10.481 4.362 10.109 C 4.316 9.616 4.29 9.102 4.29 8.567 C 4.29 8.032 4.316 7.518 4.362 7.025 C 4.872 6.654 5.404 6.315 5.956 6.008 C 6.459 5.727 6.976 5.474 7.507 5.249 C 8.037 5.474 8.555 5.728 9.058 6.009 C 9.609 6.317 10.141 6.658 10.651 7.03 C 10.697 7.523 10.723 8.037 10.723 8.572 C 10.723 9.107 10.696 9.621 10.65 10.114 L 10.65 10.109 Z M 11.59 4.289 C 11.991 4.233 12.4 4.276 12.781 4.416 C 13.161 4.555 13.502 4.787 13.772 5.089 C 13.866 5.271 13.923 5.47 13.938 5.675 C 13.953 5.879 13.926 6.084 13.859 6.278 C 13.697 6.802 13.444 7.292 13.112 7.728 C 12.66 7.264 12.176 6.834 11.662 6.441 C 11.575 5.718 11.434 5.003 11.241 4.302 C 11.358 4.296 11.479 4.287 11.59 4.287 L 11.59 4.289 Z M 11.778 7.94 C 12.007 8.148 12.22 8.357 12.418 8.567 C 12.218 8.778 12.004 8.987 11.778 9.194 C 11.785 8.986 11.794 8.779 11.794 8.567 C 11.794 8.355 11.786 8.148 11.778 7.94 Z M 13.77 12.04 C 13.43 12.611 12.503 12.895 11.239 12.829 C 11.433 12.127 11.574 11.412 11.661 10.689 C 12.173 10.298 12.656 9.869 13.107 9.408 C 13.439 9.844 13.692 10.334 13.854 10.858 C 13.921 11.052 13.948 11.257 13.933 11.462 C 13.918 11.666 13.861 11.865 13.766 12.047 L 13.77 12.04 Z" fill="currentColor" fill-rule="nonzero"></path>
</svg>