<svg xmlns="http://www.w3.org/2000/svg" width="66" height="78" viewBox="0 0 66 78" fill="none">
  <path d="M 42 0 L 44.894 0.789 C 45.257 -0.542 44.666 -1.949 43.461 -2.62 C 42.256 -3.292 40.748 -3.055 39.807 -2.047 L 42 0 Z M 0 45 L -2.193 42.953 C -3.008 43.826 -3.228 45.1 -2.751 46.196 C -2.275 47.291 -1.195 48 0 48 L 0 45 Z M 33 33 L 30.106 32.211 C 29.86 33.113 30.048 34.078 30.616 34.821 C 31.183 35.564 32.065 36 33 36 L 33 33 Z M 33 45 L 35.894 45.789 C 36.14 44.887 35.952 43.922 35.384 43.179 C 34.817 42.436 33.935 42 33 42 L 33 45 Z M 24 78 L 21.106 77.211 C 20.743 78.542 21.334 79.949 22.539 80.62 C 23.744 81.292 25.252 81.055 26.193 80.047 L 24 78 Z M 66 33 L 68.193 35.047 C 69.008 34.174 69.228 32.9 68.751 31.804 C 68.275 30.709 67.195 30 66 30 L 66 33 Z M 42 0 L 39.807 -2.047 L -2.193 42.953 L 0 45 L 2.193 47.047 L 44.193 2.047 L 42 0 Z M 42 0 L 39.106 -0.789 L 30.106 32.211 L 33 33 L 35.894 33.789 L 44.894 0.789 L 42 0 Z M 0 45 L 0 48 L 33 48 L 33 45 L 33 42 L 0 42 L 0 45 Z M 33 45 L 30.106 44.211 L 21.106 77.211 L 24 78 L 26.894 78.789 L 35.894 45.789 L 33 45 Z M 24 78 L 26.193 80.047 L 68.193 35.047 L 66 33 L 63.807 30.953 L 21.807 75.953 L 24 78 Z M 66 33 L 66 30 L 33 30 L 33 33 L 33 36 L 66 36 L 66 33 Z" fill="currentColor" fill-rule="nonzero"></path>
</svg>