<svg xmlns="http://www.w3.org/2000/svg" width="18.147" height="15.879" viewBox="0 0 18.147 15.879" fill="none">
  <path d="M 16.615 1.575 C 16.122 1.076 15.535 0.68 14.887 0.41 C 14.24 0.139 13.546 0 12.845 0 C 12.143 0 11.449 0.139 10.802 0.41 C 10.155 0.68 9.567 1.076 9.075 1.575 C 8.582 1.076 7.995 0.68 7.347 0.41 C 6.7 0.139 6.006 0 5.305 0 C 4.603 0 3.909 0.139 3.262 0.41 C 2.615 0.68 2.027 1.076 1.535 1.575 C 0.615 2.474 0.069 3.688 0.006 4.974 C -0.056 6.259 0.369 7.52 1.198 8.505 L 5.481 8.505 L 6.541 5.96 L 8.558 10.441 C 8.602 10.539 8.672 10.622 8.762 10.681 C 8.851 10.74 8.956 10.773 9.063 10.775 C 9.17 10.777 9.276 10.749 9.368 10.693 C 9.459 10.638 9.534 10.558 9.582 10.462 L 11.344 6.939 L 12.127 8.506 L 16.948 8.506 C 17.776 7.522 18.203 6.261 18.141 4.975 C 18.079 3.69 17.534 2.475 16.615 1.575 Z M 16.395 7.375 L 12.829 7.375 L 11.851 5.418 C 11.804 5.323 11.731 5.244 11.642 5.188 C 11.552 5.133 11.449 5.103 11.344 5.103 C 11.238 5.103 11.135 5.133 11.045 5.188 C 10.956 5.244 10.883 5.323 10.837 5.418 L 9.101 8.885 L 7.041 4.298 C 6.994 4.198 6.92 4.113 6.827 4.054 C 6.733 3.996 6.625 3.965 6.515 3.967 C 6.404 3.969 6.297 4.003 6.206 4.065 C 6.114 4.127 6.043 4.214 6.001 4.316 L 4.726 7.371 L 1.756 7.371 C 1.262 6.583 1.056 5.649 1.174 4.726 C 1.291 3.804 1.725 2.951 2.401 2.313 C 3.175 1.554 4.216 1.13 5.301 1.133 C 6.501 1.133 7.233 1.356 9.069 3.164 C 11.019 1.243 11.71 1.133 12.837 1.133 C 13.921 1.129 14.963 1.553 15.737 2.313 C 16.414 2.95 16.85 3.802 16.97 4.724 C 17.09 5.646 16.887 6.582 16.395 7.371 L 16.395 7.375 Z M 9.525 14.585 C 9.419 14.689 9.276 14.747 9.128 14.747 C 8.979 14.747 8.837 14.689 8.731 14.585 L 3.861 9.64 L 2.27 9.64 L 7.938 15.39 C 8.256 15.703 8.684 15.879 9.131 15.879 C 9.577 15.879 10.006 15.703 10.324 15.39 L 15.882 9.64 L 14.301 9.64 L 9.525 14.585 Z" fill="currentColor" fill-rule="nonzero"></path>
</svg>