<svg xmlns="http://www.w3.org/2000/svg" width="14.996" height="14.997" viewBox="0 0 14.996 14.997" fill="none">
  <path d="M 14.675 5.461 L 14.075 4.861 C 13.899 4.682 13.667 4.568 13.417 4.537 C 13.167 4.507 12.914 4.563 12.7 4.695 L 10.3 2.295 C 10.432 2.082 10.488 1.831 10.458 1.582 C 10.429 1.333 10.317 1.102 10.139 0.925 L 9.539 0.325 C 9.436 0.222 9.314 0.14 9.179 0.085 C 9.044 0.029 8.9 0 8.754 0 C 8.608 0 8.464 0.029 8.329 0.085 C 8.195 0.14 8.072 0.222 7.969 0.325 L 4.638 3.646 C 4.431 3.855 4.314 4.137 4.314 4.431 C 4.314 4.726 4.431 5.008 4.638 5.216 L 5.238 5.816 C 5.415 5.993 5.647 6.105 5.895 6.133 C 6.144 6.162 6.394 6.107 6.607 5.975 L 7.477 6.845 L 5.759 8.573 L 5.522 8.336 C 5.283 8.098 4.96 7.964 4.622 7.964 C 4.285 7.964 3.961 8.098 3.722 8.336 L 0.372 11.687 C 0.134 11.926 0 12.25 0 12.587 C 0 12.925 0.134 13.248 0.372 13.487 L 1.509 14.624 C 1.748 14.863 2.072 14.997 2.409 14.997 C 2.747 14.997 3.07 14.863 3.309 14.624 L 6.659 11.273 C 6.898 11.034 7.032 10.711 7.032 10.373 C 7.032 10.036 6.898 9.712 6.659 9.473 L 6.422 9.236 L 8.145 7.513 L 9.015 8.383 C 8.884 8.596 8.828 8.847 8.857 9.095 C 8.886 9.344 8.998 9.575 9.174 9.752 L 9.774 10.352 C 9.983 10.56 10.265 10.677 10.559 10.677 C 10.854 10.677 11.136 10.56 11.344 10.352 L 14.67 7.026 C 14.773 6.923 14.855 6.801 14.911 6.666 C 14.967 6.531 14.996 6.387 14.996 6.241 C 14.996 6.095 14.967 5.951 14.911 5.816 C 14.855 5.682 14.773 5.559 14.67 5.456 L 14.675 5.461 Z M 6 10.609 L 2.65 13.959 C 2.619 13.99 2.582 14.015 2.542 14.032 C 2.501 14.049 2.457 14.057 2.413 14.057 C 2.369 14.057 2.326 14.049 2.285 14.032 C 2.244 14.015 2.207 13.99 2.176 13.959 L 1.036 12.823 C 1.005 12.792 0.98 12.755 0.964 12.714 C 0.947 12.674 0.938 12.63 0.938 12.586 C 0.938 12.542 0.947 12.499 0.964 12.458 C 0.98 12.417 1.005 12.38 1.036 12.349 L 4.386 8.995 C 4.449 8.933 4.534 8.897 4.623 8.897 C 4.711 8.897 4.796 8.933 4.859 8.995 L 6 10.136 C 6.031 10.167 6.056 10.204 6.073 10.245 C 6.09 10.286 6.099 10.329 6.099 10.373 C 6.099 10.417 6.09 10.461 6.073 10.502 C 6.056 10.542 6.031 10.578 6 10.609 Z M 14.016 6.368 L 10.686 9.695 C 10.654 9.727 10.61 9.746 10.564 9.746 C 10.519 9.746 10.475 9.727 10.442 9.695 L 9.842 9.095 C 9.81 9.063 9.792 9.019 9.792 8.973 C 9.792 8.928 9.81 8.884 9.842 8.851 L 10.325 8.368 L 6.633 4.676 L 6.15 5.159 C 6.118 5.191 6.074 5.21 6.028 5.21 C 5.983 5.21 5.939 5.191 5.906 5.159 L 5.306 4.559 C 5.274 4.527 5.256 4.483 5.256 4.437 C 5.256 4.392 5.274 4.348 5.306 4.315 L 8.627 0.983 C 8.66 0.951 8.704 0.933 8.749 0.933 C 8.795 0.933 8.839 0.951 8.871 0.983 L 9.471 1.583 C 9.504 1.616 9.522 1.66 9.522 1.705 C 9.522 1.751 9.504 1.795 9.471 1.827 L 8.988 2.31 L 12.68 6.002 L 13.163 5.519 C 13.196 5.487 13.24 5.469 13.285 5.469 C 13.331 5.469 13.375 5.487 13.407 5.519 L 14.007 6.119 C 14.04 6.152 14.058 6.196 14.058 6.241 C 14.058 6.287 14.04 6.331 14.007 6.363 L 14.016 6.368 Z" fill="currentColor" fill-rule="nonzero"></path>
</svg>