<svg xmlns="http://www.w3.org/2000/svg" width="18.005" height="14.400" viewBox="0 0 18.005 14.400" fill="none">
  <path d="M 4.247 5.794 C 4.536 5.729 4.803 5.593 5.025 5.398 C 5.247 5.203 5.416 4.955 5.517 4.678 C 5.564 4.568 5.566 4.444 5.522 4.333 C 5.477 4.222 5.391 4.134 5.281 4.086 C 5.171 4.039 5.047 4.038 4.936 4.082 C 4.825 4.127 4.736 4.213 4.689 4.323 C 4.643 4.461 4.564 4.586 4.46 4.688 C 4.356 4.789 4.229 4.864 4.089 4.907 C 3.944 4.915 3.798 4.888 3.665 4.828 C 3.532 4.768 3.416 4.676 3.325 4.562 C 3.243 4.475 3.13 4.424 3.011 4.42 C 2.892 4.417 2.776 4.461 2.689 4.542 C 2.602 4.624 2.551 4.737 2.547 4.857 C 2.544 4.976 2.587 5.092 2.669 5.179 C 2.862 5.403 3.106 5.576 3.381 5.683 C 3.656 5.79 3.952 5.828 4.245 5.793 L 4.247 5.794 Z M 14.447 5.854 C 14.154 5.814 13.856 5.85 13.58 5.957 C 13.304 6.064 13.061 6.24 12.871 6.467 C 12.831 6.51 12.799 6.561 12.778 6.616 C 12.757 6.671 12.747 6.73 12.749 6.789 C 12.751 6.848 12.764 6.907 12.789 6.96 C 12.813 7.014 12.848 7.063 12.891 7.103 C 12.934 7.144 12.985 7.176 13.04 7.197 C 13.095 7.218 13.154 7.227 13.213 7.226 C 13.272 7.224 13.33 7.21 13.384 7.186 C 13.438 7.162 13.487 7.127 13.527 7.084 C 13.618 6.969 13.734 6.878 13.867 6.818 C 14 6.758 14.146 6.731 14.291 6.739 C 14.431 6.782 14.558 6.857 14.662 6.958 C 14.766 7.06 14.845 7.185 14.891 7.323 C 14.915 7.377 14.948 7.427 14.991 7.468 C 15.033 7.509 15.083 7.542 15.138 7.564 C 15.193 7.586 15.252 7.597 15.311 7.596 C 15.37 7.595 15.428 7.583 15.483 7.559 C 15.537 7.536 15.586 7.502 15.628 7.46 C 15.669 7.418 15.702 7.368 15.724 7.313 C 15.746 7.258 15.756 7.199 15.756 7.14 C 15.755 7.081 15.743 7.022 15.719 6.968 C 15.618 6.691 15.449 6.443 15.227 6.248 C 15.005 6.054 14.737 5.918 14.449 5.853 L 14.447 5.854 Z M 14.607 8.965 C 13.74 9.433 12.735 9.578 11.77 9.375 C 10.796 9.235 9.902 8.755 9.247 8.019 C 9.191 7.949 9.115 7.897 9.029 7.87 C 8.942 7.843 8.85 7.843 8.764 7.87 C 8.678 7.896 8.602 7.948 8.545 8.018 C 8.489 8.088 8.455 8.174 8.447 8.264 C 8.393 9.121 8.656 9.968 9.187 10.643 C 9.718 11.317 10.479 11.773 11.325 11.921 C 12.17 12.07 13.041 11.901 13.77 11.448 C 14.499 10.995 15.036 10.288 15.276 9.464 C 15.299 9.377 15.295 9.286 15.266 9.202 C 15.237 9.117 15.183 9.043 15.111 8.99 C 15.039 8.936 14.953 8.905 14.864 8.9 C 14.775 8.896 14.686 8.918 14.609 8.964 L 14.607 8.965 Z M 11.476 11.042 C 11.037 10.968 10.624 10.782 10.278 10.501 C 9.932 10.22 9.664 9.855 9.501 9.44 C 10.803 10.267 12.379 10.545 13.884 10.213 C 13.589 10.547 13.212 10.798 12.791 10.944 C 12.369 11.089 11.918 11.123 11.479 11.042 L 11.476 11.042 Z M 9.542 6.381 C 9.632 6.266 9.749 6.174 9.882 6.114 C 10.015 6.054 10.161 6.027 10.306 6.036 C 10.446 6.078 10.573 6.154 10.677 6.255 C 10.781 6.357 10.86 6.482 10.906 6.62 C 10.953 6.73 11.042 6.816 11.153 6.861 C 11.264 6.905 11.388 6.904 11.498 6.856 C 11.608 6.809 11.694 6.721 11.739 6.61 C 11.783 6.499 11.781 6.375 11.734 6.265 C 11.635 5.986 11.466 5.738 11.244 5.542 C 11.022 5.347 10.753 5.212 10.464 5.149 C 10.171 5.11 9.873 5.146 9.597 5.253 C 9.322 5.36 9.078 5.536 8.888 5.763 C 8.806 5.85 8.763 5.966 8.766 6.085 C 8.77 6.205 8.821 6.318 8.908 6.399 C 8.995 6.481 9.111 6.525 9.23 6.522 C 9.349 6.518 9.462 6.467 9.544 6.38 L 9.542 6.381 Z M 17.065 3.372 C 15.115 2.284 12.911 1.732 10.678 1.772 C 10.629 1.375 10.453 1.004 10.177 0.714 C 9.901 0.424 9.539 0.23 9.144 0.161 C 6.322 -0.292 3.429 0.218 0.932 1.609 C 0.598 1.802 0.331 2.094 0.17 2.446 C 0.009 2.797 -0.039 3.189 0.032 3.569 L 0.921 8.63 C 1.321 10.9 4.755 12.636 6.671 12.636 C 7.103 12.639 7.528 12.526 7.901 12.309 C 7.974 12.393 9.667 14.4 11.33 14.4 C 13.246 14.4 16.68 12.664 17.08 10.394 L 17.972 5.333 C 18.044 4.953 17.996 4.561 17.835 4.21 C 17.673 3.858 17.407 3.566 17.072 3.373 L 17.065 3.372 Z M 6.671 11.736 C 5.055 11.736 2.114 10.211 1.807 8.474 L 0.915 3.413 C 0.877 3.218 0.9 3.016 0.982 2.834 C 1.063 2.653 1.199 2.501 1.37 2.4 C 3.691 1.108 6.378 0.632 9.001 1.05 C 9.191 1.086 9.366 1.178 9.502 1.315 C 9.638 1.451 9.73 1.626 9.765 1.816 C 9.465 1.842 9.156 1.876 8.852 1.925 C 8.471 1.991 8.12 2.174 7.848 2.449 C 7.575 2.724 7.395 3.076 7.332 3.458 L 6.668 7.231 C 6.124 7.243 5.589 7.368 5.096 7.6 C 4.604 7.831 4.165 8.164 3.809 8.575 C 3.741 8.668 3.712 8.784 3.727 8.899 C 3.742 9.014 3.801 9.118 3.891 9.19 C 3.981 9.263 4.095 9.298 4.21 9.288 C 4.325 9.279 4.433 9.225 4.509 9.139 C 5.019 8.559 5.738 8.203 6.509 8.151 L 6.444 8.519 C 6.343 9.619 6.664 10.716 7.344 11.587 C 7.135 11.689 6.904 11.74 6.671 11.736 Z M 17.083 5.176 L 16.19 10.238 C 15.884 11.976 12.942 13.5 11.326 13.5 C 10.226 13.5 8.883 12.084 8.526 11.663 C 8.132 11.274 7.822 10.808 7.616 10.294 C 7.41 9.78 7.311 9.229 7.326 8.675 L 8.218 3.614 C 8.249 3.417 8.34 3.233 8.479 3.09 C 8.618 2.947 8.798 2.85 8.994 2.814 C 11.617 2.395 14.305 2.869 16.626 4.16 C 16.798 4.261 16.935 4.413 17.017 4.595 C 17.099 4.777 17.122 4.98 17.083 5.176 Z" fill="currentColor" fill-rule="nonzero"></path>
</svg>