<svg xmlns="http://www.w3.org/2000/svg" width="19.611" height="11.463" viewBox="0 0 19.611 11.463" fill="none">
  <path d="M -0.53 10.933 C -0.823 11.226 -0.823 11.701 -0.53 11.994 C -0.237 12.287 0.237 12.287 0.53 11.994 L 0 11.463 L -0.53 10.933 Z M 6.75 4.713 L 7.28 4.183 C 7.14 4.042 6.949 3.963 6.75 3.963 C 6.551 3.963 6.36 4.042 6.22 4.183 L 6.75 4.713 Z M 16.87 3.501 L 16.565 2.816 L 16.565 2.816 L 16.87 3.501 Z M 19.611 2.281 L 20.311 2.549 C 20.46 2.163 20.266 1.729 19.88 1.58 L 19.611 2.281 Z M 13.938 -0.7 C 13.552 -0.849 13.118 -0.655 12.969 -0.269 C 12.821 0.118 13.014 0.552 13.401 0.7 L 13.67 0 L 13.938 -0.7 Z M 11.056 9.02 L 10.526 9.55 C 10.696 9.72 10.937 9.798 11.174 9.76 C 11.411 9.723 11.616 9.574 11.725 9.36 L 11.056 9.02 Z M 16.63 7.953 C 16.482 8.34 16.675 8.774 17.061 8.922 C 17.448 9.071 17.882 8.877 18.03 8.491 L 17.33 8.222 L 16.63 7.953 Z M 0 11.463 L 0.53 11.994 L 7.28 5.244 L 6.75 4.713 L 6.22 4.183 L -0.53 10.933 L 0 11.463 Z M 16.87 3.501 L 17.175 4.186 L 19.916 2.966 L 19.611 2.281 L 19.306 1.595 L 16.565 2.816 L 16.87 3.501 Z M 19.611 2.281 L 19.88 1.58 L 13.938 -0.7 L 13.67 0 L 13.401 0.7 L 19.342 2.981 L 19.611 2.281 Z M 11.056 9.02 L 11.725 9.36 C 12.854 7.139 14.722 5.278 17.175 4.186 L 16.87 3.501 L 16.565 2.816 C 13.786 4.053 11.667 6.164 10.388 8.68 L 11.056 9.02 Z M 6.75 4.713 L 6.22 5.244 L 10.526 9.55 L 11.056 9.02 L 11.587 8.489 L 7.28 4.183 L 6.75 4.713 Z M 19.611 2.281 L 18.911 2.012 L 16.63 7.953 L 17.33 8.222 L 18.03 8.491 L 20.311 2.549 L 19.611 2.281 Z" fill="currentColor" fill-rule="nonzero"></path>
</svg>