<svg xmlns="http://www.w3.org/2000/svg" width="10" height="6.068" viewBox="0 0 10 6.068" fill="none">
  <path d="M 4.612 0.161 L 0.161 4.612 C 0.058 4.715 0 4.855 0 5 C 0 5.146 0.058 5.286 0.161 5.389 L 0.68 5.908 C 0.783 6.011 0.923 6.068 1.068 6.068 C 1.214 6.068 1.353 6.011 1.456 5.908 L 5 2.381 L 8.544 5.908 C 8.647 6.011 8.786 6.068 8.932 6.068 C 9.077 6.068 9.217 6.011 9.32 5.908 L 9.839 5.389 C 9.942 5.286 10 5.146 10 5 C 10 4.855 9.942 4.715 9.839 4.612 L 5.389 0.161 C 5.286 0.058 5.146 0 5 0 C 4.855 0 4.715 0.058 4.612 0.161 Z" fill="currentColor" fill-rule="nonzero"></path>
</svg>